<?xml version="1.0" encoding="iso-8859-1"?>
<!-- Generator: Adobe Illustrator 21.1.0, SVG Export Plug-In . SVG Version: 6.00 Build 0)  -->
<svg version="1.1" id="cloud_x5F_vibration_x5F_icon"
	 xmlns="http://www.w3.org/2000/svg" xmlns:xlink="http://www.w3.org/1999/xlink" x="0px" y="0px" viewBox="0 0 76.25 76.25"
	 style="enable-background:new 0 0 76.25 76.25;" xml:space="preserve">
<path id="iconbox" style="fill:#FFFFFF;stroke:#000000;stroke-width:2;stroke-miterlimit:10;" d="M62.122,74.106H14.48
	c-6.6,0-12-5.4-12-12V14.464c0-6.6,5.4-12,12-12h47.642c6.6,0,12,5.4,12,12v47.642C74.122,68.706,68.722,74.106,62.122,74.106z"/>
<ellipse id="details_1_" transform="matrix(0.778 -0.6282 0.6282 0.778 -13.228 29.2291)" style="fill:none;stroke:#F15A24;stroke-miterlimit:10;" cx="34.749" cy="33.334" rx="12.55" ry="10.099"/>
<ellipse id="details" transform="matrix(0.9757 -0.2193 0.2193 0.9757 -6.9372 12.095)" style="fill:none;stroke:#F15A24;stroke-miterlimit:10;" cx="51.015" cy="37.297" rx="8.888" ry="7.219"/>
<g id="icloud">
	<path d="M19.689,54.167c0,0-7.477-1.75-7.489-9.542s7.36-10.493,10.159-9.405c0,0,1.933-7.104,10.444-6.449
		c0,0,7.096-10.283,17.335-4.986c0,0,6.971,3.663,6.605,11.668c0,0,9.308,3.553,5.564,13.747c0,0-1.181,4.007-7.431,5.132
		L19.689,54.167z"/>
	<path d="M19.677,54.266c-2.365-0.666-4.495-2.068-5.912-4.066c-1.413-2.012-1.875-4.552-1.656-6.977
		c0.166-1.212,0.469-2.418,1.036-3.523c0.576-1.094,1.359-2.081,2.307-2.887c0.947-0.805,2.049-1.436,3.243-1.826
		c1.193-0.368,2.491-0.574,3.817-0.16l-0.558,0.282c0.354-1.152,0.895-2.161,1.602-3.093c0.704-0.922,1.568-1.745,2.58-2.342
		c1.007-0.585,2.104-1.067,3.255-1.255c0.566-0.158,1.15-0.148,1.726-0.225c0.577-0.025,1.153,0.007,1.731,0.009l-0.512,0.244
		c1.756-2.371,3.975-4.328,6.655-5.604c1.32-0.67,2.795-1.019,4.273-1.198c0.747-0.02,1.498-0.107,2.24,0.019l1.115,0.127
		l1.081,0.282c0.737,0.15,1.407,0.47,2.091,0.758c0.329,0.148,0.7,0.274,1.033,0.489c0.323,0.197,0.634,0.404,0.935,0.622
		c1.2,0.875,2.284,1.909,3.182,3.105c0.895,1.193,1.637,2.53,2.082,3.978c0.451,1.445,0.625,2.961,0.603,4.467l-0.567-0.865
		c2.223,0.933,4.067,2.395,5.431,4.378c1.327,1.987,1.919,4.489,1.652,6.831l-0.279,1.733l-0.477,1.635
		c-0.34,1.253-1.126,2.304-1.993,3.141c-1.773,1.719-4.091,2.557-6.337,2.975l-0.091,0.017l-0.092-0.001
		c-5.884-0.065-11.761-0.293-17.623-0.538l-8.786-0.339C25.536,54.367,22.607,54.311,19.677,54.266z M19.701,54.067
		c2.935-0.017,5.871-0.046,8.808-0.111l8.808-0.255c5.868-0.189,11.72-0.362,17.565-0.372L54.7,53.345
		c1.981-0.387,3.906-1.138,5.255-2.484c0.671-0.668,1.225-1.428,1.46-2.275l0.456-1.478l0.257-1.473
		c0.239-1.973-0.209-3.928-1.236-5.582c-1.037-1.626-2.71-2.997-4.464-3.775l-0.587-0.26l0.021-0.605
		c0.045-1.316-0.075-2.633-0.437-3.896c-0.358-1.263-0.975-2.45-1.753-3.523c-0.777-1.077-1.741-2.029-2.807-2.835
		c-0.267-0.2-0.541-0.389-0.817-0.565c-0.257-0.177-0.561-0.278-0.873-0.424c-0.612-0.27-1.214-0.576-1.867-0.715l-0.961-0.273
		l-0.986-0.127C44.705,22.924,44.041,23,43.378,23c-1.313,0.141-2.636,0.418-3.85,1.011c-2.446,1.096-4.627,2.957-6.256,5.083
		l-0.191,0.25l-0.321-0.005c-0.53-0.009-1.064-0.05-1.593-0.036c-0.522,0.065-1.063,0.039-1.571,0.177
		c-1.047,0.149-2.023,0.568-2.933,1.07c-0.908,0.519-1.703,1.228-2.368,2.045c-0.661,0.81-1.203,1.778-1.529,2.735l-0.145,0.426
		l-0.413-0.145c-0.984-0.344-2.199-0.239-3.296,0.078c-1.111,0.32-2.167,0.866-3.083,1.587c-0.918,0.721-1.693,1.621-2.281,2.639
		c-0.585,1.026-0.896,2.181-1.094,3.348c-0.262,2.339,0.066,4.863,1.478,6.822C15.3,52.034,17.439,53.426,19.701,54.067z"/>
</g>
</svg>
