<?xml version="1.0" encoding="iso-8859-1"?>
<!-- Generator: Adobe Illustrator 21.1.0, SVG Export Plug-In . SVG Version: 6.00 Build 0)  -->
<svg version="1.1" id="download_x5F_icon" xmlns="http://www.w3.org/2000/svg" xmlns:xlink="http://www.w3.org/1999/xlink" x="0px"
	 y="0px" viewBox="0 0 76.5 76" style="enable-background:new 0 0 76.5 76;" xml:space="preserve">
<path id="icon_x5F_box" style="fill:#FFFFFF;stroke:#000000;stroke-width:2;stroke-miterlimit:10;" d="M62.293,74.063H14.651
	c-6.6,0-12-5.4-12-12V14.421c0-6.6,5.4-12,12-12h47.642c6.6,0,12,5.4,12,12v47.642C74.293,68.663,68.893,74.063,62.293,74.063z"/>
<g id="arrow">
	<path d="M38.104,53.167c0.756-0.076,1.364-0.605,1.95-1.047c0.579-0.476,1.113-1.002,1.634-1.543l3.147-3.218l6.208-6.521
		l3.07-3.294l1.535-1.647c0.27-0.288,0.495-0.514,0.634-0.785c0.069-0.128,0.126-0.264,0.127-0.347
		c0.001-0.089-0.012-0.086-0.025-0.097c-0.157-0.167-1.061-0.2-1.761-0.191c-0.737,0-1.481,0.024-2.225,0.053
		c-1.488,0.06-2.984,0.15-4.468,0.258l-0.875,0.064l-0.03-0.941c-0.13-4.125-0.221-8.251-0.31-12.379l-0.039-3.096l-0.01-0.774
		c-0.001-0.157-0.002-0.199-0.01-0.281c-0.007-0.085-0.019-0.175-0.035-0.269c-0.06-0.373-0.183-0.747-0.349-1.086
		c-0.649-1.375-2.103-2.206-3.859-2.532l0.273,0.026c-2.812,0.026-5.624,0.042-8.437,0.007c-1.121-0.059-2.285,0.362-3.116,0.962
		c-0.838,0.612-1.33,1.506-1.522,2.621l-0.072,0.872l-0.022,1.06l-0.043,2.12l-0.121,4.24l-0.289,8.478l-0.031,0.912l-0.853-0.037
		l-7.206-0.311l-0.051-0.002l-0.007-0.001c-0.229-0.029-0.516-0.038-0.743-0.011c-0.233,0.016-0.425,0.12-0.394,0.109
		c0.002-0.046-0.046,0.11,0.089,0.333c0.105,0.207,0.262,0.434,0.444,0.646c0.769,0.869,1.621,1.753,2.428,2.628
		c1.632,1.758,3.268,3.512,4.929,5.242c1.659,1.731,3.292,3.489,4.98,5.193l2.515,2.572C36.01,51.989,36.968,52.763,38.104,53.167z
		 M38.104,53.167c-1.142-0.388-2.114-1.151-2.975-1.98l-2.551-2.537c-1.69-1.702-3.435-3.351-5.153-5.025
		c-1.717-1.676-3.459-3.328-5.204-4.976c-0.873-0.836-1.74-1.626-2.617-2.501c-0.224-0.227-0.439-0.479-0.628-0.791
		c-0.168-0.273-0.421-0.778-0.132-1.365c0.342-0.547,0.808-0.612,1.146-0.699c0.366-0.067,0.682-0.081,1.051-0.065l-0.058-0.003
		l7.209-0.228l-0.884,0.875l-0.289-8.466l-0.121-4.232l-0.043-2.116L26.833,18c0.01-0.404,0.022-0.827,0.051-1.242
		c0.175-1.669,1.027-3.511,2.501-4.569c0.709-0.543,1.495-0.935,2.298-1.201c0.401-0.139,0.811-0.234,1.23-0.314
		c0.24-0.036,0.364-0.065,0.732-0.09l0.534-0.004c2.835-0.035,5.672-0.019,8.508,0.007l0.159,0.001l0.114,0.024
		c1.145,0.243,2.315,0.631,3.382,1.333c1.065,0.689,1.988,1.723,2.485,2.931c0.258,0.598,0.431,1.221,0.508,1.869
		c0.02,0.161,0.034,0.327,0.04,0.499c0.008,0.176,0,0.391-0.003,0.491l-0.022,0.771l-0.086,3.083
		c-0.152,4.11-0.305,8.222-0.498,12.335l-0.904-0.877c1.515,0.002,3.019,0.024,4.532,0.075c0.756,0.027,1.512,0.059,2.275,0.115
		c0.385,0.031,0.756,0.059,1.163,0.117c0.411,0.077,0.902,0.123,1.374,0.625c0.236,0.281,0.281,0.685,0.219,0.961
		c-0.056,0.29-0.178,0.494-0.298,0.687c-0.24,0.382-0.576,0.67-0.831,0.914l-1.635,1.549l-3.269,3.097l-6.469,6.261l-3.191,3.173
		c-0.527,0.533-1.071,1.054-1.658,1.522C39.48,52.579,38.863,53.101,38.104,53.167z"/>
</g>
<path id="detail" style="fill:none;stroke:#000000;stroke-miterlimit:10;" d="M59.895,49.771h3.958v8.083
	c0,0,0.125,5.417-6.021,5.729s-39.875,0.104-39.875,0.104s-4.914-0.125-5.676-5.417v-8.5h3.905l0.042,8.146
	c0,0,0.25,1.625,2.063,1.771s40-0.021,40-0.021s1.542-0.333,1.625-1.875C59.999,56.25,59.895,49.771,59.895,49.771z"/>
</svg>
