<?xml version="1.0" encoding="iso-8859-1"?>
<!-- Generator: Adobe Illustrator 21.1.0, SVG Export Plug-In . SVG Version: 6.00 Build 0)  -->
<svg version="1.1" id="location_x5F_icon" xmlns="http://www.w3.org/2000/svg" xmlns:xlink="http://www.w3.org/1999/xlink" x="0px"
	 y="0px" viewBox="0 0 76.167 76.667" style="enable-background:new 0 0 76.167 76.667;" xml:space="preserve">
<path id="icon_x5F_rim" style="fill:#F9F9F9;stroke:#000000;stroke-width:2;stroke-miterlimit:10;" d="M62.093,74.291H14.451
	c-6.6,0-12-5.4-12-12V14.649c0-6.6,5.4-12,12-12h47.642c6.6,0,12,5.4,12,12v47.642C74.093,68.891,68.693,74.291,62.093,74.291z"/>
<path id="background" style="stroke:#000000;stroke-miterlimit:10;" d="M50.795,35.034c0,7.305-14.583,26.793-14.583,26.793
	S21.628,42.339,21.628,35.034s7.278-13.227,14.583-13.227S50.795,27.729,50.795,35.034z"/>
<circle id="dot_1_" style="fill:#FFFFFF;stroke:#000000;stroke-miterlimit:10;" cx="36.211" cy="34.659" r="7.158"/>
<path id="detail" style="fill:#EF0606;" d="M39.074,55.579c0,1.434-2.862,5.259-2.862,5.259s-2.862-3.825-2.862-5.259
	s1.429-2.596,2.862-2.596S39.074,54.145,39.074,55.579z"/>
</svg>
