<?xml version="1.0" encoding="iso-8859-1"?>
<!-- Generator: Adobe Illustrator 21.1.0, SVG Export Plug-In . SVG Version: 6.00 Build 0)  -->
<svg version="1.1" id="musicly_x5F_icon" xmlns="http://www.w3.org/2000/svg" xmlns:xlink="http://www.w3.org/1999/xlink" x="0px"
	 y="0px" viewBox="0 0 77.25 78" style="enable-background:new 0 0 77.25 78;" xml:space="preserve">
<path id="icon_x5F_box_3_" style="fill:#FFFFFF;stroke:#000000;stroke-width:2;stroke-miterlimit:10;" d="M62.821,75.106H15.179
	c-6.6,0-12-5.4-12-12V15.464c0-6.6,5.4-12,12-12h47.642c6.6,0,12,5.4,12,12v47.642C74.821,69.706,69.421,75.106,62.821,75.106z"/>
<g>
	<path id="mainIcon" style="fill:#B3B3B3;" d="M27.421,49.02V25.083c0,0-0.187-3.125,3.75-5.438l23.563-7.313
		c0,0,3.75-1,4.562,3.188v33.5c0,0,0.125,5.813-8.562,8.313c0,0-7.375,1.625-10-3.938c0,0-2.063-2.875,2.062-7.875
		c0,0,2.625-2.938,8.313-3.313c0,0,2.312-0.063,4.187,0.938l0.125-15.813c0,0,0.375-2.313-2.25-1.688L33.733,31.77
		c0,0-2.375,0.804-2.563,3.121l0.125,20.379c0,0-0.062,4.375-5.625,7.125c0,0-6.125,3.25-11.187-0.938c0,0-3.125-2.188-1.063-7.313
		c0,0,1.625-3.25,5.5-4.938C18.921,49.208,24.046,46.958,27.421,49.02z"/>
	<path id="detail" d="M27.347,48.889l-0.206-15.388l-0.091-7.61l-0.008-0.976c0.012-0.359,0.07-0.699,0.15-1.036
		c0.172-0.668,0.456-1.299,0.824-1.874c0.73-1.161,1.798-2.047,2.931-2.744l0.038-0.024l0.055-0.018l14.764-4.736l7.383-2.369
		l0.923-0.296l0.485-0.153c0.219-0.051,0.385-0.076,0.576-0.096c0.735-0.073,1.505-0.012,2.236,0.281
		c0.73,0.29,1.371,0.832,1.799,1.474c0.44,0.645,0.646,1.357,0.817,2.053l0.013,0.053l0.001,0.089l0.209,28.899l0.026,3.612
		l0.006,0.903c0.004,0.391-0.041,0.753-0.105,1.092c-0.129,0.686-0.352,1.333-0.631,1.954c-1.165,2.489-3.378,4.225-5.682,5.309
		c-0.591,0.248-1.161,0.536-1.785,0.723l-0.921,0.309c-0.391,0.128-0.699,0.146-1.027,0.2c-1.293,0.164-2.598,0.171-3.914-0.038
		c-1.308-0.208-2.636-0.65-3.802-1.438c-1.17-0.779-2.109-1.911-2.723-3.157l0.106,0.18c-0.264-0.401-0.336-0.618-0.449-0.925
		c-0.1-0.286-0.169-0.573-0.215-0.858c-0.103-0.574-0.092-1.139-0.044-1.689c0.12-1.098,0.475-2.106,0.92-3.031
		c0.474-0.909,1.001-1.749,1.632-2.54c0.738-0.957,1.581-1.482,2.449-2.032c1.749-1.047,3.697-1.651,5.659-1.944
		c0.243-0.045,0.501-0.059,0.751-0.089c0.247-0.019,0.496-0.069,0.819-0.059c0.533,0.006,1.038,0.049,1.552,0.121
		c1.021,0.149,2.055,0.42,3.06,0.936l-1.977,1.175l-0.017-15.813l0.019-0.226c-0.001,0.012-0.01-0.2-0.023-0.202
		c-0.019-0.039,0.026,0.067,0.109,0.122c0.078,0.052,0.06,0.033-0.035,0.025l-0.21,0.017l-0.275,0.053l0.104-0.029l-5.861,1.881
		l-5.865,1.868l-5.878,1.828l-1.469,0.459l-0.316,0.097c-0.036,0.012-0.13,0.054-0.201,0.088c-0.155,0.075-0.307,0.169-0.447,0.267
		c-0.572,0.413-0.856,0.876-0.909,1.445l0.005-0.131c0.024,3.48-0.027,6.961-0.044,10.441l-0.036,5.22l-0.018,2.61l-0.009,1.305
		L32.57,55.11l-0.001,0.163c-0.004,0.143-0.012,0.19-0.018,0.272c-0.017,0.144-0.033,0.279-0.058,0.41
		c-0.38,2.061-1.488,3.802-2.893,5.147c-0.698,0.683-1.493,1.224-2.299,1.724c-0.416,0.229-0.803,0.436-1.247,0.659
		c-0.459,0.207-0.897,0.373-1.352,0.511c-1.799,0.562-3.722,0.784-5.626,0.507c-1.898-0.292-3.724-1.124-5.155-2.366l0.056,0.043
		c-0.721-0.586-1.109-1.189-1.456-1.899c-0.327-0.698-0.502-1.45-0.562-2.194c-0.058-0.747,0.026-1.478,0.164-2.184
		c0.073-0.352,0.183-0.69,0.274-1.034l0.372-0.986l0.013-0.034l0.011-0.018c0.774-1.316,1.74-2.329,2.851-3.239
		c1.115-0.89,2.369-1.584,3.722-2.03c1.334-0.418,2.712-0.694,4.115-0.71c0.699-0.015,1.404,0.071,2.087,0.225
		c0.341,0.087,0.678,0.183,1,0.33C26.945,48.53,27.068,48.686,27.347,48.889z M27.494,49.151c-0.333-0.088-0.782-0.318-1.061-0.387
		c-0.309-0.113-0.632-0.177-0.956-0.233c-0.651-0.092-1.311-0.121-1.969-0.054c-1.315,0.098-2.615,0.445-3.844,0.919
		c-1.202,0.483-2.321,1.198-3.277,2.069c-0.943,0.862-1.796,1.928-2.339,2.994l0.023-0.052l-0.288,0.882
		c-0.062,0.298-0.146,0.594-0.193,0.891c-0.087,0.594-0.127,1.189-0.055,1.759c0.073,0.569,0.23,1.115,0.487,1.603
		c0.235,0.471,0.647,0.962,0.966,1.193l0.023,0.016l0.034,0.027c1.251,0.983,2.738,1.568,4.286,1.741
		c1.552,0.155,3.161-0.098,4.653-0.642c1.438-0.518,2.87-1.427,3.942-2.489c1.075-1.073,1.854-2.454,2.066-3.835
		c0.014-0.083,0.02-0.164,0.027-0.236c0.002-0.027,0.005-0.088,0.004-0.054L30.019,55.1l-0.013-0.652l-0.025-1.303l-0.05-2.607
		l-0.1-5.213c-0.06-3.475-0.153-6.95-0.172-10.425v-0.064l0.005-0.067c0.057-0.733,0.295-1.487,0.686-2.124
		c0.39-0.64,0.908-1.148,1.459-1.551c0.278-0.199,0.564-0.376,0.87-0.528c0.16-0.077,0.3-0.145,0.504-0.221l0.418-0.136l1.468-0.469
		l5.873-1.875l5.886-1.835l5.89-1.821l0.077-0.024l0.027-0.005l0.584-0.105c0.212-0.023,0.436-0.034,0.661-0.037
		c0.483,0.025,1.055,0.111,1.627,0.483c0.579,0.371,0.954,1.002,1.094,1.52c0.074,0.263,0.117,0.518,0.13,0.757
		c0.013,0.262,0.016,0.428-0.03,0.771l0.019-0.226L56.64,43.156l-0.038,2.223l-1.939-1.048c-0.629-0.34-1.393-0.571-2.189-0.7
		c-0.396-0.064-0.81-0.106-1.198-0.117c-0.138-0.014-0.345,0.025-0.557,0.037c-0.207,0.022-0.411,0.025-0.621,0.062
		c-1.677,0.22-3.322,0.703-4.753,1.527c-0.689,0.407-1.44,0.902-1.814,1.423c-0.53,0.639-0.998,1.357-1.387,2.074
		c-0.362,0.727-0.628,1.479-0.72,2.214c-0.035,0.364-0.05,0.728,0.009,1.063c0.023,0.168,0.061,0.333,0.111,0.481
		c0.033,0.129,0.141,0.341,0.13,0.325l0.106,0.18c0.447,0.919,1.08,1.705,1.907,2.277c0.823,0.576,1.824,0.941,2.887,1.125
		c1.062,0.187,2.189,0.201,3.287,0.076c0.265-0.039,0.567-0.06,0.745-0.132l0.795-0.258c0.536-0.148,1.047-0.402,1.571-0.609
		c2.036-0.922,3.838-2.348,4.762-4.256c0.221-0.475,0.399-0.971,0.5-1.468c0.052-0.252,0.081-0.491,0.083-0.702l0.006-0.904
		l0.026-3.615l0.209-28.917l0.014,0.141c-0.129-0.554-0.279-1.107-0.568-1.54c-0.284-0.435-0.663-0.768-1.13-0.969
		c-0.466-0.201-1.021-0.263-1.567-0.219c-0.13,0.01-0.285,0.033-0.38,0.053l-0.441,0.131l-0.927,0.278l-7.417,2.225l-14.837,4.45
		l0.093-0.041c-2.121,1.197-3.87,3.322-3.604,5.864l-0.091,7.809L27.494,49.151z"/>
</g>
</svg>
