<?xml version="1.0" encoding="iso-8859-1"?>
<!-- Generator: Adobe Illustrator 21.1.0, SVG Export Plug-In . SVG Version: 6.00 Build 0)  -->
<svg version="1.1" id="phone" xmlns="http://www.w3.org/2000/svg" xmlns:xlink="http://www.w3.org/1999/xlink" x="0px" y="0px"
	 viewBox="0 0 76 75.5" style="enable-background:new 0 0 76 75.5;" xml:space="preserve">
<path id="icon_box" style="fill:#FFFFFF;stroke:#000000;stroke-width:2;stroke-miterlimit:10;" d="M61.997,73.621H14.355
	c-6.6,0-12-5.4-12-12V13.98c0-6.6,5.4-12,12-12h47.642c6.6,0,12,5.4,12,12v47.642C73.997,68.221,68.597,73.621,61.997,73.621z"/>
<g id="phone_1_">
	<path d="M20.867,14.073c0.844-1.164,1.964-2.337,3.561-2.691c0.796-0.173,1.679,0.026,2.357,0.466
		c0.375,0.186,0.632,0.49,0.947,0.742c0.255,0.273,0.525,0.537,0.769,0.819c0.998,1.116,1.902,2.308,2.734,3.544
		c0.837,1.24,1.603,2.498,2.318,3.842l-0.041-0.076c0.435,0.751,0.66,1.444,0.768,2.248c0.094,0.784,0.044,1.623-0.236,2.392
		c-0.281,0.762-0.705,1.465-1.233,2.038c-0.252,0.302-0.551,0.535-0.828,0.803l-0.904,0.667l-0.011,0.008l-0.138,0.069
		c-1.041,0.522-2.094,1.418-2.615,2.385c-0.256,0.495-0.38,1.012-0.411,1.54c0.025,0.27,0,0.534,0.084,0.809
		c0.032,0.136,0.049,0.273,0.087,0.409l0.153,0.406c0.054,0.135,0.088,0.274,0.157,0.397l0.23,0.446
		c0.155,0.3,0.328,0.6,0.497,0.897c0.348,0.593,0.71,1.181,1.097,1.753c0.77,1.145,1.598,2.251,2.507,3.278
		c0.903,1.03,1.86,2.009,2.897,2.878c1.002,0.914,2.103,1.684,3.231,2.404c2.35,1.618,3.954,1.398,5.153-0.615l0.05-0.085
		l0.049-0.062c0.548-0.697,1.055-1.2,1.672-1.734c0.609-0.513,1.277-0.992,2.079-1.357c0.794-0.364,1.724-0.619,2.726-0.603
		c1.015,0.03,1.979,0.397,2.79,0.889l-0.111-0.067c0.821,0.452,1.571,0.902,2.339,1.385c0.762,0.48,1.512,0.987,2.253,1.525
		c0.742,0.535,1.468,1.121,2.18,1.78c0.704,0.677,1.42,1.366,2.014,2.539l-0.459-0.598c0.269,0.238,0.385,0.371,0.549,0.561
		c0.152,0.176,0.289,0.366,0.419,0.56c0.255,0.395,0.478,0.829,0.626,1.314c0.317,0.963,0.278,2.11-0.069,3.039
		c-0.333,0.963-0.914,1.624-1.471,2.24c-0.293,0.264-0.586,0.546-0.887,0.786l-0.915,0.661l0.422-0.393
		c-0.451,0.547-0.808,0.883-1.232,1.278c-0.416,0.369-0.842,0.72-1.287,1.042c-0.889,0.646-1.834,1.214-2.835,1.666
		c-0.998,0.452-2.034,0.833-3.104,1.072c-1.063,0.271-2.153,0.386-3.238,0.458l0.202-0.022c-0.547,0.074-0.893,0.079-1.316,0.087
		c-0.4-0.001-0.799-0.008-1.186-0.042c-0.781-0.054-1.547-0.155-2.297-0.308c-1.505-0.288-2.961-0.728-4.351-1.296
		c-2.792-1.119-5.349-2.674-7.678-4.467c-1.185-0.877-2.265-1.865-3.34-2.855c-1.008-1.051-2.055-2.08-2.976-3.169
		c-1.907-2.14-3.717-4.378-5.371-6.741c-1.647-2.365-3.178-4.835-4.356-7.509c-0.601-1.328-1.105-2.712-1.477-4.14
		c-0.365-1.444-0.523-2.899-0.652-4.327c-0.257-2.91,0.15-5.953,1.449-8.58C16.443,17.793,18.583,15.678,20.867,14.073z
		 M21.011,14.212c-2.226,1.744-4.154,3.883-5.258,6.48c-1.151,2.567-1.431,5.457-1.084,8.239c0.179,1.396,0.384,2.793,0.778,4.141
		c0.388,1.35,0.898,2.665,1.508,3.932c1.192,2.551,2.739,4.924,4.401,7.196c1.669,2.271,3.495,4.427,5.42,6.487
		c0.937,1.056,1.966,2.018,2.962,3.013c1.059,0.926,2.095,1.883,3.237,2.705c2.24,1.695,4.678,3.145,7.292,4.168
		c1.302,0.521,2.655,0.916,4.031,1.168c1.369,0.246,2.794,0.385,4.152,0.224l0.017-0.002h0.005c0.968-0.075,1.937-0.181,2.877-0.431
		c0.947-0.217,1.859-0.564,2.739-0.97c0.882-0.405,1.714-0.915,2.494-1.491c0.776-0.575,1.513-1.234,2.119-1.963l0.019-0.023
		l0.027-0.02l0.766-0.563c0.245-0.199,0.468-0.422,0.703-0.63c0.41-0.465,0.823-0.952,1.012-1.535
		c0.21-0.569,0.235-1.193,0.055-1.772c-0.171-0.577-0.538-1.116-0.971-1.521l-0.034-0.032l-0.017-0.034
		c-0.361-0.741-0.957-1.38-1.574-1.967c-0.624-0.587-1.289-1.136-1.986-1.646c-1.387-1.026-2.852-1.96-4.352-2.81l-0.012-0.007
		c-0.561-0.332-1.175-0.576-1.828-0.601c-0.65-0.011-1.297,0.15-1.899,0.42c-1.203,0.554-2.236,1.486-3.078,2.508l0.01-0.015
		c-0.401,0.613-0.847,1.213-1.445,1.666c-0.594,0.45-1.311,0.749-2.056,0.829c-0.745,0.08-1.497-0.044-2.19-0.302
		c-0.708-0.281-1.276-0.695-1.92-1.036c-2.447-1.541-4.608-3.512-6.44-5.735c-0.929-1.104-1.765-2.281-2.54-3.496
		c-0.756-1.228-1.511-2.453-2.03-3.823l-0.176-0.521c-0.045-0.178-0.068-0.361-0.103-0.542c-0.089-0.359-0.063-0.732-0.074-1.101
		c0.058-0.737,0.267-1.461,0.63-2.105c0.763-1.271,1.947-2.211,3.27-2.835l-0.018,0.01l0.808-0.57
		c0.238-0.225,0.507-0.422,0.721-0.67c0.456-0.473,0.803-1.037,1.044-1.641c0.462-1.221,0.295-2.642-0.315-3.778l-0.006-0.011l0,0
		c-1.291-2.615-2.81-5.145-4.665-7.398c-0.469-0.559-0.94-1.128-1.537-1.513c-0.583-0.403-1.309-0.596-2.013-0.483
		C23.065,12.043,21.913,13.08,21.011,14.212z"/>
</g>
<g id="detail_1_">
	<path d="M22.252,16.038c-1.134,2.285-2.278,4.301-3.177,6.414c-0.437,1.057-0.798,2.119-1.092,3.226
		c-0.291,1.115-0.403,2.253-0.543,3.547c-0.677-1.087-1.021-2.407-1.019-3.726c0.021-1.315,0.31-2.625,0.813-3.825
		c0.517-1.193,1.213-2.29,2.049-3.253C20.13,17.472,21.088,16.611,22.252,16.038z"/>
</g>
</svg>
