<?xml version="1.0" encoding="utf-8"?>
<!-- Generator: Adobe Illustrator 21.1.0, SVG Export Plug-In . SVG Version: 6.00 Build 0)  -->
<svg version="1.1" xmlns="http://www.w3.org/2000/svg" xmlns:xlink="http://www.w3.org/1999/xlink" x="0px" y="0px"
	 viewBox="0 0 77.3 77.3" style="enable-background:new 0 0 77.3 77.3;" xml:space="preserve">
<style type="text/css">
	.st0{fill:#FFFFFF;stroke:#000000;stroke-width:2;stroke-miterlimit:10;}
	.st1{fill:#050505;}
	.st2{fill:#999999;}
	
</style>
<g id="icon_x5F_box">
	<path id="icon_x5F_box_5_" class="st0" d="M62.6,74.7H15c-6.6,0-12-5.4-12-12V15C3,8.4,8.4,3,15,3h47.6c6.6,0,12,5.4,12,12v47.6
		C74.6,69.3,69.2,74.7,62.6,74.7z"/>
</g>
<g id="rim_1_">
	<g id="rim">
		<path class="st1" d="M38.8,11.5c7.2,0.1,14.3,2.9,19.5,7.9c2.6,2.5,4.8,5.5,6.2,8.9c1.5,3.3,2.2,7,2.3,10.7
			c0.1,7.4-2.9,14.7-8.1,20c-5.2,5.3-12.5,8.5-20,8.5c-7.5,0.1-15-2.9-20.4-8.2c-2.7-2.7-4.9-5.8-6.3-9.3c-1.4-3.5-2.2-7.3-2.1-11.1
			c0.1-3.8,0.9-7.5,2.4-10.9c1.6-3.4,3.8-6.5,6.5-9C24.3,14.1,31.6,11.5,38.8,11.5z M38.8,11.8c-3.6,0.1-7.1,0.8-10.3,2.3
			c-3.2,1.5-6.1,3.6-8.4,6.1c-4.7,5.1-7.2,12-7.1,18.8c0,3.4,0.7,6.8,2,9.9c1.3,3.1,3.2,6,5.5,8.4c4.7,4.9,11.4,7.8,18.3,7.9
			c6.9,0.1,13.7-2.6,18.6-7.5c5-4.8,7.9-11.7,7.9-18.6c0.1-7-2.6-14-7.5-19.1c-2.5-2.5-5.4-4.6-8.7-6C45.9,12.5,42.3,11.8,38.8,11.8
			z"/>
	</g>
</g>
<g id="hour_1_">
	<g id="hour">
		<path class="st2" d="M38.3,22.8c0.2,0.2,0.1,0.3,0.2,0.5l0.1,0.5l0.1,1c0.1,0.7,0.1,1.3,0.1,2c0.1,1.3,0.2,2.7,0.3,4
			c0.1,1.3,0.2,2.7,0.2,4c0,0.7,0,1.3,0,2l-0.1,1l-0.1,0.5c0,0.1,0,0.2-0.1,0.3c0,0.1,0,0.1-0.1,0.2c0,0,0,0.1-0.1,0.2
			c0,0.1-0.1,0.1-0.1,0.2c0,0-0.3,0.2-0.5,0.2c-0.2,0-0.5-0.2-0.5-0.2c0,0-0.1-0.1-0.1-0.2c0-0.1-0.1-0.1-0.1-0.2
			c0-0.1,0-0.1-0.1-0.2c0-0.1,0-0.2-0.1-0.3l-0.1-0.5l-0.1-1c0-0.7,0-1.3,0-2c0-1.3,0.1-2.7,0.2-4c0.1-1.3,0.2-2.7,0.3-4
			c0-0.7,0.1-1.3,0.1-2l0.1-1l0.1-0.5C38.1,23.2,38.1,23,38.3,22.8z M38.3,22.9c-0.1,0.2-0.1,0.6-0.2,0.9l-0.1,1
			c0,0.7-0.1,1.3-0.1,2c0,1.3-0.1,2.7-0.1,4c0,1.3,0,2.7,0.1,4c0,0.7,0.1,1.3,0.1,2l0.1,1l0.1,0.5l0,0.2c0,0.1,0.1,0.2,0,0.2
			c-0.1,0,0-0.1,0-0.2l0-0.2l0.1-0.5l0.1-1c0-0.7,0.1-1.3,0.1-2c0-1.3,0.1-2.7,0.1-4c0-1.3,0-2.7-0.1-4c0-0.7,0-1.3-0.1-2l-0.1-1
			C38.4,23.5,38.4,23.1,38.3,22.9z"/>
	</g>
</g>
<g id="minute">
	<g id="min">
		<path class="st1" d="M60.5,38.8c-0.1,0.2-0.2,0.1-0.4,0.2L59.8,39L59.1,39l-1.4,0.1l-2.8,0.2c-1.9,0.1-3.7,0.3-5.6,0.4
			c-1.9,0.1-3.7,0.2-5.6,0.2c-0.9,0-1.9,0-2.8,0l-1.4-0.1l-0.7-0.1l-0.4,0c-0.1,0-0.1,0-0.2,0c0,0-0.1,0-0.2-0.1
			c0,0-0.2-0.1-0.2-0.1l-0.1,0c0,0-0.1,0-0.1-0.1c-0.1-0.2-0.2-0.4-0.2-0.6c0-0.2,0.1-0.4,0.2-0.6c0.1-0.1,0.1-0.1,0.1-0.1l0.1,0
			c0.1,0,0.2-0.1,0.2-0.1c0.1,0,0.2-0.1,0.2-0.1c0.1,0,0.2,0,0.2,0l0.4,0l0.7-0.1l1.4-0.1c0.9,0,1.9,0,2.8,0c1.9,0,3.7,0.1,5.6,0.2
			l5.6,0.4l2.8,0.2l1.4,0.1l0.7,0.1l0.3,0.1C60.3,38.6,60.4,38.6,60.5,38.8z M60.4,38.8c-0.3-0.1-0.9-0.1-1.3-0.2l-1.4-0.1l-2.8-0.1
			c-1.9,0-3.7-0.1-5.6,0c-1.9,0-3.7,0-5.6,0.1L41,38.6l-1.4,0.1L39,38.7l-0.3,0l-0.2,0c0,0-0.1,0.1-0.1,0c-0.1-0.1,0,0,0.1,0l0.2,0
			l0.3,0l0.7,0.1L41,39l2.8,0.1c1.9,0,3.7,0.1,5.6,0.1c1.9,0,3.7,0,5.6,0l2.8-0.1l1.4-0.1C59.5,38.9,60.1,38.8,60.4,38.8z"/>
	</g>
</g>
<g id="detail4_1_">
	<g id="detail4">
		<polygon points="39.3,11.5 38.3,20.2 37.3,11.5 		"/>
	</g>
</g>
<g id="detail3_1_">
	<g id="detail3">
		<polygon points="37.8,66 38.8,57.3 39.8,66 		"/>
	</g>
</g>
<g id="detail2_1_">
	<g id="detail2">
		<polygon points="12.6,37.7 21.3,38.7 12.6,39.7 		"/>
	</g>
</g>
<g id="detail1_1_">
	<g id="detail1">
		<polygon points="65.9,39.9 57.2,38.9 65.9,37.9 		"/>
	</g>
</g>
</svg>
