<?xml version="1.0" encoding="iso-8859-1"?>
<!-- Generator: Adobe Illustrator 21.1.0, SVG Export Plug-In . SVG Version: 6.00 Build 0)  -->
<svg version="1.1" id="setting_x5F_icon" xmlns="http://www.w3.org/2000/svg" xmlns:xlink="http://www.w3.org/1999/xlink" x="0px"
	 y="0px" viewBox="0 0 76.75 77.25" style="enable-background:new 0 0 76.75 77.25;" xml:space="preserve">
<path id="icon_x5F_box_4_" style="fill:#FFFFFF;stroke:#000000;stroke-width:2;stroke-miterlimit:10;" d="M62.27,74.957H14.628
	c-6.6,0-12-5.4-12-12V15.316c0-6.6,5.4-12,12-12H62.27c6.6,0,12,5.4,12,12v47.642C74.27,69.557,68.87,74.957,62.27,74.957z"/>
<path id="teeth" d="M32.84,17.872c0,0,0.688,3.333,4.458,3.708c0,0,3.979,0.5,5.333-3.708l6.125,2.479c0,0-1.833,3.958,1,6.292
	c2.833,2.333,6,0.688,6,0.688l2.5,6.146c0,0-3.708,1-3.646,5.208c0,0,0,3.396,3.521,4.521l-2.458,6.083c0,0-3.167-1.729-5.875,0.813
	c0,0-2.75,2.5-1.104,6.042l-6.125,2.542c0,0-1.104-3.354-4.604-3.438c0,0-3.521-0.333-5,3.563l-6.167-2.521
	c0,0,1.708-3.521-1.042-6.083s-5.896-0.75-5.896-0.75l-2.542-6.125c0,0,3.875-1.333,3.542-5.417c0,0-0.188-3.271-3.667-4.333
	l2.604-6.146c0,0,3,1.896,6.104-0.917c0,0,2.562-2.438,0.75-6.042L32.84,17.872z"/>
<path id="detail" style="fill:none;stroke:#666666;stroke-miterlimit:10;" d="M32.84,17.872c0,0,0.688,3.333,4.458,3.708
	c0,0,3.979,0.5,5.333-3.708l6.125,2.479c0,0-1.833,3.958,1,6.292c2.833,2.333,6,0.688,6,0.688l2.5,6.146c0,0-3.708,1-3.646,5.208
	c0,0,0,3.396,3.521,4.521l-2.458,6.083c0,0-3.167-1.729-5.875,0.813c0,0-2.75,2.5-1.104,6.042l-6.125,2.542
	c0,0-1.104-3.354-4.604-3.438c0,0-3.521-0.333-5,3.563l-6.167-2.521c0,0,1.708-3.521-1.042-6.083s-5.896-0.75-5.896-0.75
	l-2.542-6.125c0,0,3.875-1.333,3.542-5.417c0,0-0.188-3.271-3.667-4.333l2.604-6.146c0,0,3,1.896,6.104-0.917
	c0,0,2.562-2.438,0.75-6.042L32.84,17.872z"/>
<ellipse id="inner_x5F_hole" style="fill:#F4F4F4;stroke:#000000;stroke-miterlimit:10;" cx="37.609" cy="38.575" rx="9.749" ry="10.286"/>
</svg>
