<?xml version="1.0" encoding="iso-8859-1"?>
<!-- Generator: Adobe Illustrator 21.1.0, SVG Export Plug-In . SVG Version: 6.00 Build 0)  -->
<svg version="1.1" id="snapchat_x5F_icon" xmlns="http://www.w3.org/2000/svg" xmlns:xlink="http://www.w3.org/1999/xlink" x="0px"
	 y="0px" viewBox="0 0 76.75 78" style="enable-background:new 0 0 76.75 78;" xml:space="preserve">
<path id="icon_x5F_box_1_" style="fill:#FFFFFF;stroke:#000000;stroke-width:2;stroke-miterlimit:10;" d="M62.58,75.227H14.939
	c-6.6,0-12-5.4-12-12V15.585c0-6.6,5.4-12,12-12H62.58c6.6,0,12,5.4,12,12v47.642C74.58,69.827,69.18,75.227,62.58,75.227z"/>
<path id="snapchat_1_" style="fill:none;stroke:#000000;stroke-width:2;stroke-miterlimit:10;" d="M38.759,63.581
	c0,0,5.578,0.25,9.703-4.875c0,0,5.875,0.833,6.75,0.75s2-4,2-4s5.75-0.5,6.75-2.625s-1.125-2.5-1.125-2.5s-9.5-3.875-9.75-9.125
	c0,0,6.208-3.208,6.125-4.625s-1.5-2.112-2.375-2.806s-4.125,0.806-4.125,0.806s1.062-5.313,0.125-8.375
	c-0.938-3.063-3.625-8.993-11.125-10.75c0,0-7.25-1.625-13.875,4.375c0,0-3.5,4-3.5,9.625v4.319c0,0-4.875-0.319-5.875,1.306
	c0,0,0,2.926,2.625,4.338c2.625,1.412,2.875,2.037,2.875,2.037s-1,5.708-9.25,9.479c0,0-3,1.521,2.375,4.021l2.625,1.25
	c0,0,2.25,3.292,4.125,2.75s4.406-0.04,6.75,1C30.588,59.956,35.363,64.127,38.759,63.581z"/>
<g id="detail_4_">
	<path d="M30.671,36.414c1.348,0.617,2.642,1.141,3.937,1.56c1.297,0.41,2.595,0.661,3.883,0.731
		c0.647,0.068,1.285-0.013,1.934-0.032c0.637-0.106,1.287-0.188,1.922-0.39c0.656-0.142,1.273-0.419,1.929-0.661
		c0.661-0.241,1.258-0.616,1.979-0.874c-0.831,1.211-1.933,2.323-3.334,2.987c-0.667,0.415-1.439,0.57-2.19,0.807
		c-0.774,0.117-1.561,0.229-2.345,0.16c-1.568-0.08-3.083-0.563-4.403-1.304C32.667,38.651,31.489,37.669,30.671,36.414z"/>
</g>
</svg>
