<?xml version="1.0" encoding="utf-8"?>
<!-- Generator: Adobe Illustrator 21.1.0, SVG Export Plug-In . SVG Version: 6.00 Build 0)  -->
<svg version="1.1" xmlns="http://www.w3.org/2000/svg" xmlns:xlink="http://www.w3.org/1999/xlink" x="0px" y="0px"
	 viewBox="0 0 76.5 77.3" style="enable-background:new 0 0 76.5 77.3;" xml:space="preserve">
<style type="text/css">
	.st0{fill:#FFFFFF;stroke:#000000;stroke-width:2;stroke-miterlimit:10;}
	.st1{fill:#B3B3B3;stroke:#000000;stroke-width:2;stroke-miterlimit:10;}
	.st2{fill:#F2F2F2;stroke:#000000;stroke-width:2;stroke-miterlimit:10;}
	.st3{fill:#020202;stroke:#000000;stroke-miterlimit:10;}


	#detail
	{
	max-width:200px;
	display:none;

	}


</style>
<g id="icon_x5F_box">
	<path id="icon_x5F_box_6_" class="st0" d="M62.4,74.9H14.8c-6.6,0-12-5.4-12-12V15.3c0-6.6,5.4-12,12-12h47.6c6.6,0,12,5.4,12,12
		v47.6C74.4,69.5,69,74.9,62.4,74.9z"/>
</g>
<g id="camera">
	<path id="camera_1_" class="st1" d="M13.9,31.4v21.7c0,0,0.4,4.1,4.4,5.6h39.4c0,0,5.3-0.9,5.5-4.7s0-22.6,0-22.6s0.1-5.2-4.7-6.3
		h-4.3c0,0-1.7-5-3.8-5.3s-13.2,0-13.2,0s-2.1,0.7-3.8,4.4l-0.7,1h-6.4l-0.2-2.4l-7.2,0.2L19.1,25C19.1,25,14.8,25.9,13.9,31.4z"/>
</g>
<g id="lens_1_">
	<circle id="lens" class="st2" cx="44.1" cy="41.1" r="12.5"/>
</g>
<g id="detail">
	<circle id="detail_3_" class="st3" cx="20.7" cy="31.4" r="2"/>
</g>
</svg>
